<svg width="80" height="26" viewBox="0 0 80 26" fill="none" xmlns="http://www.w3.org/2000/svg">
<path d="M34.0453 13.3334C34.0453 16.9424 31.107 19.6017 27.5011 19.6017C23.8953 19.6017 20.957 16.9424 20.957 13.3334C20.957 9.6991 23.8953 7.06519 27.5011 7.06519C31.107 7.06519 34.0453 9.6991 34.0453 13.3334ZM31.1806 13.3334C31.1806 11.0782 29.4776 9.53519 27.5011 9.53519C25.5247 9.53519 23.8217 11.0782 23.8217 13.3334C23.8217 15.5661 25.5247 17.1317 27.5011 17.1317C29.4776 17.1317 31.1806 15.5632 31.1806 13.3334Z" fill="#EA4335"/>
<path d="M48.1618 13.3334C48.1618 16.9424 45.2235 19.6017 41.6177 19.6017C38.0118 19.6017 35.0735 16.9424 35.0735 13.3334C35.0735 9.70192 38.0118 7.06519 41.6177 7.06519C45.2235 7.06519 48.1618 9.6991 48.1618 13.3334ZM45.2971 13.3334C45.2971 11.0782 43.5941 9.53519 41.6177 9.53519C39.6412 9.53519 37.9383 11.0782 37.9383 13.3334C37.9383 15.5661 39.6412 17.1317 41.6177 17.1317C43.5941 17.1317 45.2971 15.5632 45.2971 13.3334Z" fill="#FBBC05"/>
<path d="M61.6895 7.44388V18.6974C61.6895 23.3265 58.8483 25.2171 55.4895 25.2171C52.3277 25.2171 50.4248 23.1852 49.7071 21.5234L52.2012 20.5258C52.6454 21.5461 53.7336 22.75 55.4865 22.75C57.6365 22.75 58.9689 21.4754 58.9689 19.0761V18.1745H58.8689C58.2277 18.9347 56.9924 19.5989 55.4336 19.5989C52.1718 19.5989 49.1836 16.8689 49.1836 13.3561C49.1836 9.81779 52.1718 7.06519 55.4336 7.06519C56.9895 7.06519 58.2248 7.72932 58.8689 8.46692H58.9689V7.44671H61.6895V7.44388ZM59.1718 13.3561C59.1718 11.1489 57.6395 9.53519 55.6895 9.53519C53.713 9.53519 52.0571 11.1489 52.0571 13.3561C52.0571 15.5406 53.713 17.1317 55.6895 17.1317C57.6395 17.1317 59.1718 15.5406 59.1718 13.3561Z" fill="#4285F4"/>
<path d="M66.1764 0.847839V19.2174H63.3823V0.847839H66.1764Z" fill="#34A853"/>
<path d="M77.0648 15.3965L79.2883 16.8209C78.5707 17.8411 76.8413 19.5989 73.853 19.5989C70.1472 19.5989 67.3795 16.8463 67.3795 13.3306C67.3795 9.60303 70.1707 7.06238 73.5325 7.06238C76.9178 7.06238 78.5736 9.65107 79.1148 11.05L79.4119 11.7622L70.6913 15.2326C71.3589 16.4902 72.3972 17.1317 73.853 17.1317C75.3119 17.1317 76.3236 16.4422 77.0648 15.3965ZM70.2207 13.1413L76.0501 10.8154C75.7295 10.0326 74.7648 9.48716 73.6295 9.48716C72.1736 9.48716 70.1472 10.7222 70.2207 13.1413Z" fill="#EA4335"/>
<path d="M10.3795 11.7029V9.04353H19.706C19.7971 9.507 19.8442 10.0553 19.8442 10.6487C19.8442 12.644 19.2765 15.1111 17.4471 16.869C15.6677 18.6494 13.3942 19.599 10.3824 19.599C4.80008 19.599 0.105957 15.2298 0.105957 9.86592C0.105957 4.502 4.80008 0.132874 10.3824 0.132874C13.4707 0.132874 15.6707 1.29722 17.3236 2.81483L15.3707 4.69135C14.1854 3.62309 12.5795 2.79222 10.3795 2.79222C6.30302 2.79222 3.11478 5.94896 3.11478 9.86592C3.11478 13.7829 6.30302 16.9396 10.3795 16.9396C13.0236 16.9396 14.5295 15.9194 15.4942 14.9924C16.2765 14.2407 16.7913 13.1668 16.9942 11.7L10.3795 11.7029Z" fill="#4285F4"/>
</svg>
