<svg width="80" height="23" viewBox="0 0 80 23" fill="none" xmlns="http://www.w3.org/2000/svg">
<g clip-path="url(#clip0_2_363)">
<path d="M76.2741 20.0274C77.8436 20.0274 78.9553 19.7453 79.7837 19.1377V16.3821C78.9335 16.9679 77.909 17.3368 76.4703 17.3368C74.0507 17.3368 73.048 15.4708 73.048 12.5198C73.048 9.41699 74.2687 7.83302 76.4921 7.83302C77.8 7.83302 79.0861 8.28868 79.7619 8.72265V5.85849C79.0425 5.46793 77.8 5.18585 76.0997 5.18585C71.7619 5.18585 69.5166 8.28868 69.5166 12.6283C69.5384 17.3802 71.7401 20.0274 76.2741 20.0274ZM55.0643 18.7689V16.0132C54.018 16.7292 52.2305 17.3585 50.5956 17.3585C48.1106 17.3585 47.1733 16.1868 47.0207 13.8H55.2169V12.0208C55.2169 7.05189 53.0153 5.18585 49.6365 5.18585C45.4948 5.18585 43.533 8.33208 43.533 12.65C43.533 17.6189 45.9962 20.0274 50.3123 20.0274C52.4703 20.0274 54.0616 19.4415 55.0643 18.7689ZM23.958 5.44623V11.0877H19.424V5.44623H16.0234V19.7453H19.424V13.7783H23.958V19.7453H27.3586V5.44623H23.958ZM42.6828 17.0547H41.1787V5.44623H31.2823V6.66132C31.2823 10.1547 31.0643 14.6679 29.8654 17.0547H28.7755V23H31.9144V19.7453H39.5221V23H42.661V17.0547H42.6828ZM65.8981 19.7453H69.7564L64.3068 12.0425L69.1025 5.44623H65.6801L60.8845 12.0425V5.44623H57.4839V19.7453H60.8845V12.7151L65.8981 19.7453ZM49.5493 7.83302C51.2278 7.83302 51.751 9.2217 51.751 11.0226V11.3047H47.0207C47.1079 9.02642 47.9362 7.83302 49.5493 7.83302ZM37.7782 17.0547H32.9826C33.9199 14.9066 34.1815 11.0009 34.1815 8.52736V8.0934H37.7782V17.0547Z" fill="#3E3E3E"/>
<path d="M13.188 19.7453H9.72207V2.66887H8.17439C5.3406 2.66887 3.85831 4.07925 3.85831 6.18396C3.85831 8.57076 4.88283 9.67736 6.99728 11.0877L8.74114 12.2594L3.72752 19.7453H0L4.51226 13.0623C1.91826 11.2179 0.457766 9.41698 0.457766 6.37925C0.457766 2.58208 3.11717 0 8.15259 0H13.1662V19.7453H13.188Z" fill="#FC3F1D"/>
</g>
<defs>
<clipPath id="clip0_2_363">
<rect width="80" height="23" fill="white"/>
</clipPath>
</defs>
</svg>
